<svg width="28" height="28" viewBox="0 0 28 28" fill="none" xmlns="http://www.w3.org/2000/svg">
<path d="M8.48148 11.6776C7.49711 10.467 6.5727 10.2072 5.70828 10.8979C4.41168 11.9341 4.0393 15.5457 5.08271 18.7301C6.12616 21.9145 8.15505 26.251 12.2509 26.251C16.3468 26.251 17.3157 21.888 18.9866 19.2501C20.6576 16.6122 21.5416 14.0673 19.9038 10.8979" stroke="#1DA678" stroke-width="2" stroke-linecap="round" stroke-linejoin="round"/>
<path d="M6.41666 10.5216C5.42328 9.00842 4.64551 7.83463 4.0833 7.00023C3.24 5.74866 5.39645 4.13108 6.41666 5.2315C7.09677 5.96511 8.00029 7.04562 9.12718 8.47303" stroke="#1DA678" stroke-width="2" stroke-linecap="round"/>
<path d="M8.76376 14.9565C8.48113 11.4193 8.71108 9.11616 9.45361 8.04697C10.5674 6.44327 12.6368 5.83521 14.5854 5.83521C15.7456 5.83521 16.8051 6.32935 17.7639 7.31763" stroke="#1DA678" stroke-width="2" stroke-linecap="round" stroke-linejoin="round"/>
<path d="M23.9168 7.35761C24.2584 8.54551 23.7005 9.6308 21.9826 9.87656C20.2646 10.1224 18.9766 10.9862 18.0476 11.7129C17.1187 12.4396 15.4573 14.6445 15.1294 15.7515C14.8014 16.8585 12.9268 15.8404 12.4233 15.3984C11.9198 14.9565 11.4249 13.9888 12.4233 12.9768C13.4217 11.9648 13.2057 11.7628 13.2057 10.7365C13.2057 9.71025 18.6668 6.31548 21.7425 6.00503C22.4262 5.96513 23.5752 6.16971 23.9168 7.35761Z" stroke="#1DA678" stroke-width="2"/>
<path d="M13.4212 2.3335V5.4034" stroke="#1DA678" stroke-width="2" stroke-linecap="round"/>
<path d="M11.8455 6.25213C10.0851 4.03986 8.6657 2.80515 7.5873 2.54797" stroke="#1DA678" stroke-width="2" stroke-linecap="round"/>
<path d="M9.91893 4.10029L10.4967 1.72766" stroke="#1DA678" stroke-width="2" stroke-linecap="round"/>
<path d="M20.7741 6.25195C20.5861 6.89624 20.5861 7.50034 20.7741 8.06419C20.9621 8.6281 21.3649 9.2322 21.9824 9.87649" stroke="#1DA678" stroke-width="2" stroke-linecap="round"/>
</svg>
