<svg width="26" height="26" viewBox="0 0 26 26" fill="none" xmlns="http://www.w3.org/2000/svg">
<path d="M6.65158 1.91663H7.16841C9.89025 2.31913 10.6282 3.86379 13 3.86379C15.3718 3.86379 16.1097 2.31913 18.8322 1.91663H19.125C19.8527 1.91663 20.5734 2.05997 21.2457 2.33846C21.918 2.61696 22.529 3.02515 23.0435 3.53974C23.5581 4.05433 23.9663 4.66524 24.2448 5.33759C24.5233 6.00994 24.6667 6.73055 24.6667 7.45829V7.82346C24.6667 9.51688 22.8642 11.45 22.3333 13.2817C21.7704 15.2265 21.3848 16.8167 21.2717 18.4798C21.0062 22.377 19.6774 24.0833 18.25 24.0833C16.1185 24.0833 14.2262 15.3479 13.0367 15.3479C11.8467 15.3479 9.48716 24.0833 7.75 24.0833C6.69008 24.0833 5.3175 23.4562 4.80183 18.4798C4.5965 16.5 4.25 15.2989 3.66666 13.2817C3.15333 11.5084 1.422 9.38971 1.33333 7.48804C1.29988 6.76883 1.41266 6.05031 1.66484 5.37593C1.91701 4.70156 2.30335 4.08533 2.80049 3.56453C3.29763 3.04373 3.89523 2.62917 4.55716 2.34593C5.21909 2.06268 5.9316 1.91664 6.65158 1.91663Z" stroke="#1DA678" stroke-width="2" stroke-linecap="round" stroke-linejoin="round"/>
<path d="M8.03116 6.27002L17.6672 9.37685M8.03116 9.37685L17.6672 6.27002" stroke="#1DA678" stroke-width="2" stroke-linecap="round" stroke-linejoin="round"/>
</svg>
