<svg width="18" height="23" viewBox="0 0 18 23" fill="none" xmlns="http://www.w3.org/2000/svg">
<path d="M8.9998 2.375C7.3429 2.375 5.99976 3.71815 5.99976 5.375V9.375C5.99976 11.0319 7.3429 12.375 8.9998 12.375C10.6566 12.375 11.9998 11.0319 11.9998 9.375V5.375C11.9998 3.71815 10.6566 2.375 8.9998 2.375ZM8.9998 0.375C11.7612 0.375 13.9998 2.61358 13.9998 5.375V9.375C13.9998 12.1364 11.7612 14.375 8.9998 14.375C6.23833 14.375 3.99976 12.1364 3.99976 9.375V5.375C3.99976 2.61358 6.23833 0.375 8.9998 0.375ZM0.0546875 10.375H2.07065C2.55588 13.7673 5.47329 16.375 8.9998 16.375C12.5262 16.375 15.4436 13.7673 15.9289 10.375H17.9448C17.4837 14.5466 14.1714 17.8589 9.9998 18.3201V22.375H7.9998V18.3201C3.82814 17.8589 0.515837 14.5466 0.0546875 10.375Z" fill="black"/>
</svg>
