<svg width="16" height="17" viewBox="0 0 16 17" fill="none" xmlns="http://www.w3.org/2000/svg">
<path d="M6.40213 7.69171C6.99805 8.73961 7.86935 9.61092 8.91725 10.2068L9.48012 9.4188C9.66727 9.15687 10.0205 9.07593 10.3031 9.23025C11.1983 9.71929 12.1877 10.0165 13.2197 10.0982C13.5507 10.1244 13.8059 10.4006 13.8059 10.7326V13.5725C13.8059 13.8988 13.5591 14.1722 13.2345 14.2055C12.8973 14.2402 12.5571 14.2576 12.215 14.2576C6.76742 14.2576 2.35132 9.84154 2.35132 4.39401C2.35132 4.05182 2.36877 3.71164 2.40343 3.3744C2.43678 3.04985 2.71019 2.8031 3.03646 2.8031H5.8764C6.20838 2.8031 6.48458 3.05831 6.51078 3.38925C6.59247 4.4213 6.88967 5.41069 7.37872 6.30593C7.53304 6.58845 7.45209 6.94172 7.19016 7.12883L6.40213 7.69171ZM4.79766 7.27368L6.00672 6.41007C5.66389 5.67001 5.42895 4.88517 5.30867 4.07583H3.62982C3.62597 4.18167 3.62405 4.28774 3.62405 4.39401C3.62405 9.13861 7.47035 12.9849 12.215 12.9849C12.3212 12.9849 12.4273 12.983 12.5331 12.9791V11.3003C11.7238 11.18 10.939 10.9451 10.1989 10.6022L9.33528 11.8113C8.98592 11.6756 8.64852 11.5159 8.32512 11.3343L8.28815 11.3132C7.04113 10.6041 6.0049 9.56784 5.29577 8.32082L5.27473 8.28385C5.09308 7.96045 4.93339 7.62305 4.79766 7.27368Z" fill="#06685F"/>
</svg>
