<svg width="28" height="25" viewBox="0 0 28 25" fill="none" xmlns="http://www.w3.org/2000/svg">
<path d="M14.875 1.625C14.875 1.39294 14.7828 1.17038 14.6187 1.00628C14.4546 0.842187 14.2321 0.75 14 0.75C13.7679 0.75 13.5454 0.842187 13.3813 1.00628C13.2172 1.17038 13.125 1.39294 13.125 1.625V10.8003L12.25 11.425V7.26C12.25 5.5975 10.9025 4.25 9.24 4.25C8.323 4.25 7.44975 4.7225 6.71475 5.286C5.9605 5.867 5.2325 6.63875 4.58675 7.43675C3.29875 9.02575 2.2295 10.8423 1.82175 11.7768C1.51375 12.4855 1.134 13.8068 0.84875 15.296C0.56 16.7958 0.3535 18.5458 0.427 20.1243C0.497 21.6415 0.83475 23.2568 1.8935 24.2018C3.066 25.2518 4.732 25.1748 6.69025 24.1948L9.8315 22.625C10.5582 22.2617 11.1694 21.7031 11.5965 21.012C12.0237 20.3209 12.25 19.5245 12.25 18.712V17.375C12.25 17.1429 12.1578 16.9204 11.9937 16.7563C11.8296 16.5922 11.6071 16.5 11.375 16.5C11.1429 16.5 10.9204 16.5922 10.7563 16.7563C10.5922 16.9204 10.5 17.1429 10.5 17.375V18.712C10.5 19.1998 10.3641 19.6779 10.1075 20.0927C9.85095 20.5075 9.48389 20.8426 9.0475 21.0605L5.908 22.6303C4.1965 23.486 3.43175 23.2305 3.059 22.8963C2.569 22.4588 2.24175 21.4945 2.17525 20.0438C2.1105 18.6525 2.29425 17.0513 2.56725 15.625C2.842 14.19 3.192 13.0158 3.4265 12.475C3.759 11.7085 4.739 10.025 5.9465 8.5375C6.545 7.799 7.17675 7.13925 7.78225 6.67375C8.40875 6.19075 8.9005 6 9.24 6C9.57417 6 9.89466 6.13275 10.131 6.36905C10.3673 6.60534 10.5 6.92583 10.5 7.26V12.6745L7.3675 14.9145C7.19183 15.054 7.07642 15.2556 7.04511 15.4776C7.01379 15.6997 7.06896 15.9254 7.19922 16.108C7.32949 16.2906 7.52489 16.4162 7.74509 16.4588C7.96529 16.5015 8.19347 16.458 8.3825 16.3373L14 12.3245L19.6175 16.3373C19.7108 16.4083 19.8174 16.4598 19.931 16.4889C20.0446 16.5179 20.1628 16.5238 20.2787 16.5062C20.3947 16.4886 20.5059 16.4479 20.6057 16.3866C20.7056 16.3252 20.7922 16.2443 20.8602 16.1488C20.9282 16.0534 20.9764 15.9452 21.0018 15.8307C21.0272 15.7163 21.0293 15.5979 21.0081 15.4826C20.9869 15.3673 20.9427 15.2574 20.8782 15.1595C20.8136 15.0616 20.7301 14.9777 20.6325 14.9128L17.5 12.6745V7.26C17.5 6.92583 17.6327 6.60534 17.869 6.36905C18.1053 6.13275 18.4258 6 18.76 6C19.0995 6 19.5913 6.1925 20.2178 6.67375C20.8233 7.13925 21.4533 7.799 22.0553 8.53925C23.2593 10.0268 24.2393 11.7085 24.5735 12.475C24.808 13.0158 25.158 14.19 25.4328 15.625C25.7058 17.0495 25.8878 18.6525 25.8248 20.0438C25.7583 21.4945 25.4328 22.4588 24.941 22.8963C24.5683 23.2288 23.8035 23.486 22.092 22.6303L18.9508 21.0605C18.5147 20.8424 18.148 20.5072 17.8917 20.0923C17.6355 19.6775 17.4999 19.1996 17.5 18.712V17.375C17.5 17.1429 17.4078 16.9204 17.2437 16.7563C17.0796 16.5922 16.8571 16.5 16.625 16.5C16.3929 16.5 16.1704 16.5922 16.0063 16.7563C15.8422 16.9204 15.75 17.1429 15.75 17.375V18.712C15.75 19.5245 15.9763 20.3209 16.4035 21.012C16.8306 21.7031 17.4418 22.2617 18.1685 22.625L21.3098 24.1948C23.2698 25.1748 24.9323 25.25 26.1065 24.2018C27.1653 23.2568 27.503 21.6415 27.573 20.1243C27.6465 18.5458 27.44 16.7958 27.153 15.296C26.866 13.805 26.488 12.4855 26.1765 11.775C25.7705 10.8423 24.7013 9.02575 23.4132 7.43675C22.7658 6.63875 22.0395 5.867 21.2853 5.286C20.5503 4.7225 19.677 4.25 18.76 4.25C17.0975 4.25 15.75 5.5975 15.75 7.26V11.425L14.875 10.8003V1.625Z" fill="#1DA678"/>
</svg>
