<svg width="15" height="14" viewBox="0 0 15 14" fill="none" xmlns="http://www.w3.org/2000/svg">
<path d="M11.5423 10.1475L14.4361 13.0414L13.4805 13.9969L10.5867 11.1031C9.54622 11.9356 8.22665 12.4336 6.79146 12.4336C3.43459 12.4336 0.710175 9.70916 0.710175 6.35228C0.710175 2.99541 3.43459 0.270996 6.79146 0.270996C10.1483 0.270996 12.8728 2.99541 12.8728 6.35228C12.8728 7.78747 12.3748 9.10704 11.5423 10.1475ZM10.1866 9.64618C11.0129 8.79466 11.5214 7.63314 11.5214 6.35228C11.5214 3.73902 9.40473 1.62239 6.79146 1.62239C4.1782 1.62239 2.06157 3.73902 2.06157 6.35228C2.06157 8.96555 4.1782 11.0822 6.79146 11.0822C8.07232 11.0822 9.23384 10.5737 10.0854 9.74747L10.1866 9.64618Z" fill="#858585"/>
</svg>
