<svg width="21" height="21" viewBox="0 0 21 21" fill="none" xmlns="http://www.w3.org/2000/svg">
<g clip-path="url(#clip0_79_1293)">
<path d="M13.4806 9.87131C14.1626 9.87131 14.7154 9.3185 14.7154 8.63658C14.7154 7.95466 14.1626 7.40186 13.4806 7.40186C12.7987 7.40186 12.2459 7.95466 12.2459 8.63658C12.2459 9.3185 12.7987 9.87131 13.4806 9.87131Z" fill="#858585"/>
<path d="M7.71861 9.87131C8.40053 9.87131 8.95334 9.3185 8.95334 8.63658C8.95334 7.95466 8.40053 7.40186 7.71861 7.40186C7.03669 7.40186 6.48389 7.95466 6.48389 8.63658C6.48389 9.3185 7.03669 9.87131 7.71861 9.87131Z" fill="#858585"/>
<path d="M10.5914 2.46313C6.04759 2.46313 2.3681 6.15085 2.3681 10.6946C2.3681 15.2384 6.04759 18.9262 10.5914 18.9262C15.1434 18.9262 18.8311 15.2384 18.8311 10.6946C18.8311 6.15085 15.1434 2.46313 10.5914 2.46313ZM10.5996 17.2799C6.96129 17.2799 4.01441 14.333 4.01441 10.6946C4.01441 7.05632 6.96129 4.10944 10.5996 4.10944C14.2379 4.10944 17.1848 7.05632 17.1848 10.6946C17.1848 14.333 14.2379 17.2799 10.5996 17.2799ZM6.48386 12.3409C7.12592 14.2671 8.72283 15.6336 10.5996 15.6336C12.4764 15.6336 14.0733 14.2671 14.7154 12.3409H6.48386Z" fill="#858585"/>
</g>
<defs>
<clipPath id="clip0_79_1293">
<rect width="19.7556" height="19.7556" fill="white" transform="translate(0.721863 0.81665)"/>
</clipPath>
</defs>
</svg>
