<svg width="15" height="11" viewBox="0 0 15 11" fill="none" xmlns="http://www.w3.org/2000/svg">
<path d="M11.1393 3.74854L14.4569 1.42627C14.6008 1.32549 14.7993 1.36051 14.9 1.50447C14.9374 1.55795 14.9575 1.62165 14.9575 1.68694V9.37381C14.9575 9.54951 14.815 9.69199 14.6393 9.69199C14.574 9.69199 14.5103 9.67188 14.4569 9.63446L11.1393 7.31218V9.98491C11.1393 10.3364 10.8544 10.6213 10.503 10.6213H1.59388C1.24243 10.6213 0.95752 10.3364 0.95752 9.98491V1.07582C0.95752 0.724366 1.24243 0.439453 1.59388 0.439453H10.503C10.8544 0.439453 11.1393 0.724366 11.1393 1.07582V3.74854ZM11.1393 5.75863L13.6848 7.54044V3.52029L11.1393 5.3021V5.75863ZM2.23025 1.71218V9.34854H9.86661V1.71218H2.23025ZM3.50297 2.98491H4.7757V4.25763H3.50297V2.98491Z" fill="#06685F"/>
</svg>
